<?xml version="1.0" standalone="no"?>
<!DOCTYPE svg PUBLIC "-//W3C//DTD SVG 20010904//EN"
 "http://www.w3.org/TR/2001/REC-SVG-20010904/DTD/svg10.dtd">
<svg version="1.0" xmlns="http://www.w3.org/2000/svg"
 width="316.000000pt" height="316.000000pt" viewBox="0 0 316.000000 316.000000"
 preserveAspectRatio="xMidYMid meet">
<metadata>
Created by potrace 1.11, written by Peter Selinger 2001-2013
</metadata>
<g transform="translate(0.000000,316.000000) scale(0.100000,-0.100000)"
fill="#000000" stroke="none">
<path d="M0 1580 l0 -1580 1580 0 1580 0 0 1580 0 1580 -1580 0 -1580 0 0
-1580z m1451 651 c252 -80 395 -343 376 -690 -14 -252 -115 -449 -279 -544
-145 -84 -435 -89 -590 -11 -129 65 -252 243 -285 412 l-16 82 -104 0 -103 0
0 -265 0 -265 -130 0 -130 0 0 645 0 645 130 0 130 0 0 -265 0 -265 103 0 104
0 16 80 c46 235 208 412 416 456 94 19 277 12 362 -15z m1259 -1 c136 -18 232
-87 288 -208 25 -52 27 -68 27 -177 0 -111 -2 -125 -29 -182 -33 -73 -99 -139
-175 -177 -66 -34 -155 -45 -353 -46 l-158 0 0 -245 0 -245 -130 0 -130 0 0
645 0 645 293 0 c160 0 326 -5 367 -10z"/>
<path d="M1136 2024 c-77 -24 -156 -109 -185 -199 -31 -95 -39 -260 -18 -371
26 -137 78 -219 169 -269 48 -27 62 -30 143 -30 113 0 171 26 227 100 56 75
80 158 86 307 9 246 -45 375 -189 448 -56 29 -167 35 -233 14z"/>
<path d="M2310 1840 l0 -182 158 4 c144 3 161 6 202 28 64 36 90 79 90 150 0
73 -27 116 -95 150 -44 22 -65 25 -202 28 l-153 4 0 -182z"/>
</g>
</svg>
